<svg width="35" height="45" viewBox="0 0 35 45" fill="none" xmlns="http://www.w3.org/2000/svg">
<path d="M8.9524 0C6.57248 0.0086153 4.293 1.03856 2.61449 2.86367C0.935987 4.68878 -0.00433192 7.15986 1.50045e-05 9.7343V43.362H26.0476C28.4277 43.3533 30.7074 42.3232 32.3859 40.4978C34.0644 38.6724 35.0046 36.201 35 33.6264V0H8.9524ZM29.106 27.3627V30.2782H29.0476V33.6264C29.042 34.4989 28.7192 35.3339 28.1488 35.9508C27.5785 36.5678 26.8066 36.9171 26 36.9231H5.90478V26.1058H28.7822C28.8909 26.0971 28.999 26.0812 29.106 26.0581C29.8157 25.9114 30.4522 25.4911 30.8973 24.8753C31.3424 24.2595 31.5659 23.49 31.5264 22.7094C31.4869 21.9289 31.1869 21.1904 30.6823 20.6309C30.1776 20.0714 29.5025 19.7289 28.7822 19.6669H5.90478V19.5214H5.89406V13.0825H5.9524V9.7343C5.95819 8.8619 6.28114 8.027 6.85143 7.4101C7.42172 6.7932 8.19353 6.44386 9.00002 6.43759H29.0953V18.4088C30.1128 18.5314 31.0528 19.0552 31.736 19.8801C32.4191 20.7049 32.7975 21.7731 32.7988 22.8805C32.8001 23.988 32.4243 25.0572 31.7432 25.884C31.062 26.7107 30.1232 27.2371 29.106 27.3627Z" fill="#E5D141"/>
<path d="M29.0952 19.667V19.7121C28.9917 19.6911 28.8872 19.6761 28.7821 19.667H29.0952Z" fill="#E5D141"/>
<path d="M29.1059 26.0586V26.1062H28.7821C28.8909 26.0976 28.999 26.0817 29.1059 26.0586Z" fill="#E5D141"/>
<path d="M17.3054 12.7787C18.0225 12.7787 18.6038 12.1499 18.6038 11.3742C18.6038 10.5985 18.0225 9.96973 17.3054 9.96973C16.5884 9.96973 16.0071 10.5985 16.0071 11.3742C16.0071 12.1499 16.5884 12.7787 17.3054 12.7787Z" fill="#E5D141"/>
<path d="M17.3054 30.6781C18.0225 30.6781 18.6038 30.0493 18.6038 29.2736C18.6038 28.4979 18.0225 27.8691 17.3054 27.8691C16.5884 27.8691 16.0071 28.4979 16.0071 29.2736C16.0071 30.0493 16.5884 30.6781 17.3054 30.6781Z" fill="#E5D141"/>
<path d="M17.3059 11.125C18.7054 11.1253 19.8069 12.3464 19.8069 13.8105C19.8069 15.2747 18.7053 16.4958 17.3059 16.4961C15.9063 16.4961 14.804 15.2748 14.804 13.8105C14.804 12.3462 15.9062 11.125 17.3059 11.125Z" stroke="#E5D141" stroke-width="0.5" stroke-miterlimit="10"/>
<path d="M17.3059 29.0234C18.7054 29.0237 19.8069 30.2448 19.8069 31.709C19.8069 33.1731 18.7053 34.3943 17.3059 34.3945C15.9063 34.3945 14.804 33.1733 14.804 31.709C14.804 30.2447 15.9062 29.0234 17.3059 29.0234Z" stroke="#E5D141" stroke-width="0.5" stroke-miterlimit="10"/>
<path d="M5.89405 44.9997C6.73035 44.9997 7.40831 44.2663 7.40831 43.3617C7.40831 42.457 6.73035 41.7236 5.89405 41.7236C5.05775 41.7236 4.37979 42.457 4.37979 43.3617C4.37979 44.2663 5.05775 44.9997 5.89405 44.9997Z" fill="#E5D141"/>
<path d="M25.242 44.9997C26.0783 44.9997 26.7563 44.2663 26.7563 43.3617C26.7563 42.457 26.0783 41.7236 25.242 41.7236C24.4057 41.7236 23.7278 42.457 23.7278 43.3617C23.7278 44.2663 24.4057 44.9997 25.242 44.9997Z" fill="#E5D141"/>
</svg>
